<?xml version="1.0" encoding="utf-8"?>
<!-- Generator: Adobe Illustrator 25.0.0, SVG Export Plug-In . SVG Version: 6.00 Build 0)  -->
<svg version="1.1" id="Capa_1" xmlns="http://www.w3.org/2000/svg" xmlns:xlink="http://www.w3.org/1999/xlink" x="0px" y="0px"
	 viewBox="0 0 36 36" style="enable-background:new 0 0 36 36;" xml:space="preserve">
<style type="text/css">
	.st0{clip-path:url(#SVGID_2_);}
	.st1{fill:#FFFFFF;}
	.st2{fill:#3C3C3C;}
	.st3{fill:#575757;}
	.st4{fill:#FFB846;}
	.st5{opacity:0.46;fill:#575757;}
	.st6{fill:#F6E362;}
</style>
<g>
	<defs>
		<rect id="SVGID_1_" width="36" height="36"/>
	</defs>
	<clipPath id="SVGID_2_">
		<use xlink:href="#SVGID_1_"  style="overflow:visible;"/>
	</clipPath>
	<g class="st0">
		<path class="st1" d="M7.6,8c-2.3,2.4-3.7,5.5-4,8.8c-0.3,3.3,0.6,6.6,2.4,9.3c1.9,2.7,4.6,4.7,7.8,5.7c3.2,0.9,6.6,0.8,9.6-0.5
			c0.2-1.4-0.2-2.6-0.4-3.1c-0.4-1-1.8-2.7-4.1-5.1c-0.6-0.6-0.6-1.1-0.4-2.6l0-0.2c0.1-1,0.4-1.6,3.8-2.1c1.7-0.3,2.2,0.4,2.8,1.4
			l0.2,0.3c0.6,0.9,1,1.1,1.7,1.4c0.3,0.1,0.7,0.3,1.2,0.6c1.2,0.7,1.2,1.4,1.2,3.1v0.2c0,0.7-0.1,1.3-0.2,1.9
			c1.4-1.7,2.3-3.8,2.8-5.9c0.5-2.2,0.4-4.4-0.1-6.6c-0.5-2.1-1.6-4.1-3-5.8c-1.4-1.7-3.2-3-5.3-3.9c-1,0.7-2.4,1.6-2.8,2.3
			c-0.2,0.3-0.6,2-1.7,2.2c-0.3,0-0.7,0-1.1,0c-1.1-0.1-2.6-0.2-3.1,1.2c-0.3,0.8-0.4,3.1,0.6,4.3c0.2,0.2,0.2,0.5,0.1,0.9
			c-0.1,0.5-0.4,0.8-0.5,0.9c-0.2-0.1-0.5-0.5-0.8-0.8c-0.6-0.7-1.3-1.5-2.2-1.7c-0.3-0.1-0.7-0.2-1-0.2c-1-0.2-2.1-0.4-2.4-1
			c-0.2-0.4-0.2-1-0.2-1.6c0-0.8,0-1.6-0.4-2.4C8,8.5,7.9,8.2,7.6,8z M18,36C8.1,36,0,27.9,0,18S8.1,0,18,0s18,8.1,18,18
			S27.9,36,18,36z"/>
	</g>
</g>
<g>
	<g>
		<path class="st2" d="M23,24c-0.6-0.2-1.3-0.1-1.9,0.2L10.3,11.3l-1.1,1.3L20,25.4c-0.8,1.6,0,3.8,1.5,4.3
			C24.7,30.8,26.2,25.2,23,24z M23.1,27.1c-0.3,1.3-1.9,0.7-1.6-0.6C21.8,25.3,23.4,25.9,23.1,27.1z"/>
		<path class="st3" d="M10,17.8l4.7-5.6l0.9,0.3l1.6-1.9L12,4.4c-0.5-0.5-1.2-0.5-1.7,0c-8.8,11.4-9.8,6.5-1.7,16.4l1.6-1.9L10,17.8
			z"/>
		<polygon class="st4" points="13.2,5.9 4.6,16.1 4,15.4 12.6,5.2 		"/>
		<polygon class="st4" points="14.4,7.3 5.8,17.5 5.2,16.8 13.8,6.6 		"/>
		<path class="st5" d="M10.8,5.4c0.5-0.9,3.4,2.7,3.3,3.8C14.1,10.2,10.2,6.4,10.8,5.4z"/>
	</g>
	<g>
		<path class="st2" d="M11.6,27.7c1.2,4.1,6.3,1.6,4.7-2.3L27,12.6L26,11.3L15.2,24.2C13.3,22.9,10.9,25.3,11.6,27.7z M13.8,25.9
			c1.1-0.4,1.6,1.5,0.5,1.9C13.2,28.2,12.7,26.3,13.8,25.9z"/>
		<path class="st3" d="M26.3,17.8l-4.7-5.6l-0.9,0.3L19,10.7l5.3-6.2c0.5-0.5,1.2-0.5,1.7,0c8.8,11.4,9.8,6.5,1.7,16.4L26,18.9
			L26.3,17.8z"/>
		<polygon class="st6" points="23.1,5.9 31.7,16.1 32.2,15.4 23.6,5.2 		"/>
		<polygon class="st6" points="21.9,7.3 30.5,17.5 31,16.8 22.4,6.6 		"/>
		<path class="st5" d="M31.5,13.3C31,12.4,28.1,16,28.2,17C28.3,18.1,32.1,14.3,31.5,13.3z"/>
	</g>
</g>
</svg>
