<?xml version="1.0" encoding="utf-8"?>
<!-- Generator: Adobe Illustrator 25.0.0, SVG Export Plug-In . SVG Version: 6.00 Build 0)  -->
<svg version="1.1" id="Capa_1" xmlns="http://www.w3.org/2000/svg" xmlns:xlink="http://www.w3.org/1999/xlink" x="0px" y="0px"
	 viewBox="0 0 50 50" style="enable-background:new 0 0 50 50;" xml:space="preserve">
<style type="text/css">
	.st0{fill:#3F3E43;}
	.st1{fill:#ADACB4;}
	.st2{fill:#57565C;}
	.st3{fill:#8FD0E4;}
	.st4{fill:#E16944;}
	.st5{fill:#F4C47A;}
</style>
<g>
	<defs>
		<rect id="SVGID_1_" width="50" height="50"/>
	</defs>
	<clipPath id="SVGID_2_">
		<use xlink:href="#SVGID_1_"  style="overflow:visible;"/>
	</clipPath>
</g>
<g>
	<rect x="5.8" y="14.7" class="st0" width="38.5" height="25.9"/>
	<path class="st1" d="M35.2,27.7C34.9,39,15.7,39,15.5,27.7C15.7,16.3,34.9,16.4,35.2,27.7z"/>
	<rect x="16.3" y="13.1" class="st2" width="18" height="1.6"/>
	<rect x="1.6" y="13.3" class="st2" width="4.1" height="28.7"/>
	<rect x="44.2" y="13.3" class="st2" width="4.1" height="28.7"/>
	<path class="st3" d="M14.7,14.8H9.4c-0.2-1.9,0.4-3.5,2.9-3.3c1.4,0,2.5,1,2.5,2.2V14.8z"/>
	<path class="st4" d="M41.5,14.8h-5.4c-0.2-1.9,0.4-3.5,2.9-3.3c1.4,0,2.5,1,2.5,2.2V14.8z"/>
	<polygon class="st5" points="14.5,17.7 12.6,17.7 12.6,16.1 11.5,16.1 11.5,17.7 9.6,17.7 9.6,18.7 11.5,18.7 11.5,20.4 12.6,20.4 
		12.6,18.7 14.5,18.7 	"/>
	
		<rect x="38.3" y="15.8" transform="matrix(-1.836970e-16 1 -1 -1.836970e-16 57.0294 -20.5948)" class="st5" width="1" height="4.9"/>
	<polygon class="st5" points="22.7,22.3 20.8,28.1 25.6,28.1 23.6,34.4 30.8,25.5 25.4,25.5 26.8,22.3 	"/>
</g>
</svg>
