<?xml version="1.0" encoding="utf-8"?>
<!-- Generator: Adobe Illustrator 25.0.0, SVG Export Plug-In . SVG Version: 6.00 Build 0)  -->
<svg version="1.1" id="Capa_1" xmlns="http://www.w3.org/2000/svg" xmlns:xlink="http://www.w3.org/1999/xlink" x="0px" y="0px"
	 viewBox="0 0 50 50" style="enable-background:new 0 0 50 50;" xml:space="preserve">
<style type="text/css">
	.st0{fill:#ADACB4;}
	.st1{fill:#8F8F9B;}
	.st2{fill:#4F4E54;}
</style>
<g>
	<defs>
		<rect id="SVGID_1_" width="50" height="50"/>
	</defs>
	<clipPath id="SVGID_2_">
		<use xlink:href="#SVGID_1_"  style="overflow:visible;"/>
	</clipPath>
</g>
<g>
	<path class="st0" d="M29.9,29.9v-1.2h-4c-0.1-0.6-0.2-1.2-0.4-1.8l3.7-1.5l-0.5-1.1l-3.7,1.5c-0.3-0.5-0.6-1-1-1.5l2.8-2.7L26,20.7
		l-2.8,2.7c-0.5-0.4-1-0.7-1.5-1l1.5-3.6l-1.2-0.5l-1.5,3.6c-0.6-0.2-1.1-0.3-1.8-0.3v-3.9h-1.3v3.9c-0.6,0-1.2,0.2-1.8,0.4
		l-1.5-3.6l-1.2,0.5l1.5,3.6c-0.5,0.3-1,0.6-1.5,1l-2.8-2.7l-0.9,0.9l2.8,2.7c-0.4,0.5-0.7,1-1,1.5l-3.7-1.5l-0.5,1.2l3.7,1.5
		c-0.2,0.5-0.3,1.1-0.3,1.7h-4v1.2h4c0.1,0.6,0.2,1.2,0.4,1.8l-3.7,1.5l0.5,1.1l3.7-1.5c0.3,0.5,0.6,1,1,1.5l-2.8,2.7l0.9,0.9
		l2.8-2.7c0.5,0.4,1,0.7,1.5,1L13,39.8l1.2,0.5l1.5-3.6c0.6,0.2,1.1,0.3,1.8,0.3v3.9h1.3V37c0.6,0,1.2-0.2,1.8-0.4l1.5,3.6l1.2-0.5
		l-1.5-3.6c0.5-0.3,1-0.6,1.5-1l2.8,2.7l0.9-0.9l-2.8-2.7c0.4-0.5,0.7-1,1-1.5l3.7,1.5l0.5-1.2l-3.7-1.5c0.2-0.5,0.3-1.1,0.3-1.7
		H29.9z"/>
	<path class="st1" d="M24,29.3c-0.1,7.7-11.8,7.7-11.9,0C12.2,21.6,23.9,21.6,24,29.3z"/>
	<path class="st0" d="M22.3,29.3c-0.1,5.5-8.5,5.5-8.6,0C13.8,23.8,22.3,23.8,22.3,29.3z"/>
	<path class="st2" d="M19.5,29.3c0,1.8-2.8,1.8-2.9,0C16.6,27.5,19.4,27.5,19.5,29.3z"/>
	<path class="st0" d="M42.3,13.3v-0.7h-2.4c0-0.4-0.1-0.7-0.2-1.1l2.2-0.9l-0.3-0.7l-2.2,0.9c-0.2-0.3-0.4-0.6-0.6-0.9l1.7-1.7
		l-0.5-0.5l-1.7,1.7c-0.3-0.2-0.6-0.4-0.9-0.6l0.9-2.2l-0.7-0.3l-0.9,2.2c-0.3-0.1-0.7-0.2-1.1-0.2V6h-0.8v2.3
		c-0.4,0-0.7,0.1-1.1,0.2l-0.9-2.2l-0.7,0.3L33,8.8c-0.3,0.2-0.6,0.4-0.9,0.6l-1.7-1.7l-0.5,0.5l1.7,1.7c-0.2,0.3-0.4,0.6-0.6,0.9
		l-2.2-0.9l-0.3,0.7l2.2,0.9c-0.1,0.3-0.2,0.7-0.2,1H28v0.7h2.4c0,0.4,0.1,0.7,0.2,1.1l-2.2,0.9l0.3,0.7l2.2-0.9
		c0.2,0.3,0.4,0.6,0.6,0.9l-1.7,1.7l0.5,0.5l1.7-1.7c0.3,0.2,0.6,0.4,0.9,0.6l-0.9,2.2l0.7,0.3l0.9-2.2c0.3,0.1,0.7,0.2,1.1,0.2v2.3
		h0.8v-2.3c0.4,0,0.7-0.1,1.1-0.2l0.9,2.2l0.7-0.3l-0.9-2.2c0.3-0.2,0.6-0.4,0.9-0.6l1.7,1.7l0.5-0.5l-1.7-1.7
		c0.2-0.3,0.4-0.6,0.6-0.9l2.2,0.9l0.3-0.7l-2.2-0.9c0.1-0.3,0.2-0.7,0.2-1H42.3z"/>
	<path class="st1" d="M38.7,12.9c-0.1,4.6-7.1,4.6-7.2,0C31.7,8.3,38.7,8.3,38.7,12.9z"/>
	<path class="st0" d="M37.7,12.9c-0.1,3.3-5.1,3.3-5.2,0C32.6,9.6,37.7,9.6,37.7,12.9z"/>
	<path class="st2" d="M36,12.9c0,1.1-1.7,1.1-1.7,0C34.3,11.8,36,11.8,36,12.9z"/>
	<g>
		<path class="st2" d="M35.2,20.5c-5.4,0.1-9.3-5.7-7.1-10.5c2.6-6.1,11.6-6.1,14.2,0C44.5,14.8,40.6,20.6,35.2,20.5z M35.2,6.6
			c-8.5,0.2-8.5,12.6,0,12.7C43.7,19.2,43.7,6.7,35.2,6.6z"/>
	</g>
	<path class="st2" d="M29.9,24.4c-3.3-8.1-14.7-10.3-20.9-4C0.9,28.2,6.7,41.9,18,41.9C27,42,33.5,32.5,29.9,24.4z M18,40.6
		C2.9,40.3,2.9,18.3,18,18C33.2,18.3,33.2,40.3,18,40.6z"/>
	<g>
		<polygon class="st2" points="29.2,35.5 28.2,34.9 40.6,16.5 41.5,17.1 		"/>
	</g>
	<g>
		<path class="st2" d="M10.5,19.8L10.5,19.8c-0.2-0.3-0.1-0.6,0.2-0.8l21-12.9c0.3-0.2,0.6-0.1,0.8,0.2l0,0c0.2,0.3,0.1,0.6-0.2,0.8
			L11.3,20C11,20.2,10.6,20.1,10.5,19.8z"/>
	</g>
</g>
</svg>
