<?xml version="1.0" encoding="utf-8"?>
<!-- Generator: Adobe Illustrator 25.0.0, SVG Export Plug-In . SVG Version: 6.00 Build 0)  -->
<svg version="1.1" id="Capa_1" xmlns="http://www.w3.org/2000/svg" xmlns:xlink="http://www.w3.org/1999/xlink" x="0px" y="0px"
	 viewBox="0 0 50 50" style="enable-background:new 0 0 50 50;" xml:space="preserve">
<style type="text/css">
	.st0{clip-path:url(#SVGID_2_);}
	.st1{fill:#4F4E54;}
	.st2{fill:#8F8F9B;}
	.st3{fill:#ADACB4;}
	.st4{fill:#B5B5BC;}
	.st5{fill:#D4D4D6;}
</style>
<g>
	<defs>
		<rect id="SVGID_1_" width="50" height="50"/>
	</defs>
	<clipPath id="SVGID_2_">
		<use xlink:href="#SVGID_1_"  style="overflow:visible;"/>
	</clipPath>
	<g class="st0">
		<g>
			<polygon class="st1" points="27.8,37 26.3,38.3 17.6,24.2 19.1,22.9 			"/>
			<path class="st2" d="M27.5,35.4l-2.3,2c-0.2,0.2-0.4,0.1-0.6-0.1L18,26.8c-0.1-0.2-0.1-0.5,0.1-0.7c0.1-0.1,2.5-2.3,2.6-2.1
				c0.1,0,0.3,0.1,0.3,0.2l6.5,10.5C27.7,34.9,27.6,35.2,27.5,35.4z"/>
			<path class="st2" d="M17.2,17.9l-3,2.6l-3.3-5.3c-0.8-1.4,0.6-2.2,1.4-2.9c0.5-0.4,1.2-0.3,1.6,0.3L17.2,17.9z"/>
			<path class="st1" d="M26.8,37.3C24.9,39,27,42.4,29,40.8C30.9,39,28.8,35.6,26.8,37.3z M28.3,39.6c-0.7,0.6-1.4-0.6-0.8-1.2
				C28.2,37.8,29,39,28.3,39.6z"/>
			<path class="st3" d="M20.8,21.5L16,25.7c-0.2,0.2-0.5,0.1-0.6-0.1l-4.6-7.4c-0.1-0.2-0.1-0.6,0.1-0.7l4.8-4.2
				c0.1-0.1,0.2-0.1,0.3-0.1c0.1,0,0.2,0.1,0.3,0.2l4.6,7.4C21,21,21,21.3,20.8,21.5z"/>
			<polygon class="st4" points="16.9,24.9 16.2,25.5 11.1,17.2 11.8,16.6 			"/>
			<polygon class="st5" points="17.5,24.4 16.7,25 11.6,16.7 12.3,16.1 			"/>
			<g>
				<path class="st3" d="M17.2,28.2l6.4-1.2c0.5-0.1,0.8-0.6,0.7-1.2c-0.1-0.6-0.5-0.9-1-0.9l-6.4,1.2C15.8,26.4,16,28.4,17.2,28.2z
					"/>
				<path class="st3" d="M25,27.7l-6.4,1.2c-0.5,0.1-0.8,0.6-0.7,1.2l0,0c0.1,0.6,0.5,0.9,1,0.9l6.4-1.2
					C26.3,29.6,26.1,27.5,25,27.7z"/>
				<path class="st3" d="M26.6,30.5l-6.4,1.2c-0.5,0.1-0.8,0.6-0.7,1.2l0,0c0.1,0.6,0.5,0.9,1,0.9l6.4-1.2c0.5-0.1,0.8-0.6,0.7-1.2
					l0,0C27.6,30.8,27.1,30.4,26.6,30.5z"/>
				<path class="st3" d="M28.3,33.2L22,34.4c-1.1,0.2-0.9,2.2,0.3,2c0,0,6.4-1.2,6.4-1.2c0.5-0.1,0.8-0.6,0.7-1.2
					C29.2,33.5,28.8,33.1,28.3,33.2z"/>
			</g>
		</g>
		<g>
			<polygon class="st1" points="38.8,32.7 37.3,34 28.6,19.9 30.1,18.6 			"/>
			<path class="st2" d="M38.5,31.1l-2.3,2c-0.2,0.2-0.4,0.1-0.6-0.1L29,22.5c-0.1-0.2-0.1-0.5,0.1-0.7c0.1-0.1,2.5-2.3,2.6-2.1
				c0.1,0,0.3,0.1,0.3,0.2l6.5,10.5C38.7,30.6,38.6,30.9,38.5,31.1z"/>
			<path class="st2" d="M28.1,13.6l-3,2.6l-3.3-5.3c-0.8-1.4,0.6-2.2,1.4-2.9c0.5-0.4,1.2-0.3,1.6,0.3L28.1,13.6z"/>
			<path class="st1" d="M37.8,33c-1.9,1.7,0.2,5.1,2.2,3.5C41.9,34.7,39.8,31.3,37.8,33z M39.3,35.3c-0.7,0.6-1.4-0.6-0.8-1.2
				C39.2,33.5,40,34.7,39.3,35.3z"/>
			<path class="st3" d="M31.9,16.4L27.3,9c-0.1-0.2-0.4-0.3-0.6-0.1l-4.8,4.2c-0.2,0.2-0.2,0.5-0.1,0.7l4.6,7.4
				c0.1,0.2,0.4,0.3,0.6,0.1l4.8-4.2C32,17,32,16.7,31.9,16.4z"/>
			<polygon class="st4" points="27.9,20.6 27.2,21.2 22.1,12.9 22.8,12.3 			"/>
			<polygon class="st5" points="28.4,20.1 27.7,20.7 22.6,12.4 23.3,11.8 			"/>
			<g>
				<path class="st3" d="M28.2,23.9l6.4-1.2c0.5-0.1,0.8-0.6,0.7-1.2c-0.1-0.6-0.5-0.9-1-0.9l-6.4,1.2C26.8,22.1,27,24.1,28.2,23.9z
					"/>
				<path class="st3" d="M35.9,23.4l-6.4,1.2c-0.5,0.1-0.8,0.6-0.7,1.2l0,0c0.1,0.6,0.5,0.9,1,0.9l6.4-1.2
					C37.3,25.2,37.1,23.2,35.9,23.4z"/>
				<path class="st3" d="M37.6,26.2l-6.4,1.2c-0.5,0.1-0.8,0.6-0.7,1.2l0,0c0.1,0.6,0.5,0.9,1,0.9l6.4-1.2c0.5-0.1,0.8-0.6,0.7-1.2
					l0,0C38.5,26.5,38.1,26.1,37.6,26.2z"/>
				<path class="st3" d="M39.3,28.9l-6.4,1.2c-1.1,0.2-0.9,2.2,0.3,2c0,0,6.4-1.2,6.4-1.2c0.5-0.1,0.8-0.6,0.7-1.2
					C40.2,29.2,39.8,28.8,39.3,28.9z"/>
			</g>
		</g>
	</g>
</g>
</svg>
