<?xml version="1.0" encoding="utf-8"?>
<!-- Generator: Adobe Illustrator 25.0.0, SVG Export Plug-In . SVG Version: 6.00 Build 0)  -->
<svg version="1.1" id="Capa_1" xmlns="http://www.w3.org/2000/svg" xmlns:xlink="http://www.w3.org/1999/xlink" x="0px" y="0px"
	 viewBox="0 0 36 36" style="enable-background:new 0 0 36 36;" xml:space="preserve">
<style type="text/css">
	.st0{clip-path:url(#SVGID_2_);}
	.st1{fill:#FFFFFF;}
	.st2{fill:#E4E4E4;}
	.st3{fill:#D6D6D6;}
	.st4{fill:#F6E362;}
	.st5{fill:#575757;}
</style>
<g>
	<defs>
		<rect id="SVGID_1_" width="36" height="36"/>
	</defs>
	<clipPath id="SVGID_2_">
		<use xlink:href="#SVGID_1_"  style="overflow:visible;"/>
	</clipPath>
	<g class="st0">
		<path class="st1" d="M18,16.4c2.1,0,4.2,0.8,5.7,2.3c1.5,1.5,2.3,3.5,2.3,5.7V34h-3.2v-9.6c0-1.2-0.5-2.4-1.3-3.3
			c-0.8-0.9-2-1.4-3.2-1.5l-0.3,0c-1.2,0-2.4,0.5-3.3,1.3c-0.9,0.8-1.4,2-1.5,3.2l0,0.3V34H10v-9.6c0-2.1,0.8-4.2,2.3-5.7
			C13.8,17.2,15.9,16.4,18,16.4z M7.6,21.2c0.4,0,0.9,0.1,1.3,0.2c-0.3,0.8-0.4,1.7-0.5,2.5l0,0.5v0.1c-0.2-0.1-0.4-0.1-0.6-0.1
			l-0.2,0C7,24.4,6.4,24.6,6,25c-0.4,0.4-0.7,1-0.8,1.5l0,0.2V34H2v-7.2c0-1.5,0.6-2.9,1.6-4C4.7,21.8,6.1,21.2,7.6,21.2z
			 M28.4,21.2c1.5,0,2.9,0.6,4,1.6c1.1,1.1,1.6,2.5,1.6,4V34h-3.2v-7.2c0-0.6-0.2-1.2-0.6-1.6c-0.4-0.4-1-0.7-1.5-0.8l-0.2,0
			c-0.3,0-0.5,0-0.8,0.1v-0.1c0-1.1-0.2-2.1-0.5-3C27.5,21.3,28,21.2,28.4,21.2z M7.6,11.6c1.1,0,2.1,0.4,2.8,1.2
			c0.8,0.8,1.2,1.8,1.2,2.8s-0.4,2.1-1.2,2.8c-0.8,0.8-1.8,1.2-2.8,1.2s-2.1-0.4-2.8-1.2c-0.8-0.8-1.2-1.8-1.2-2.8s0.4-2.1,1.2-2.8
			C5.5,12,6.5,11.6,7.6,11.6z M28.4,11.6c1.1,0,2.1,0.4,2.8,1.2c0.8,0.8,1.2,1.8,1.2,2.8s-0.4,2.1-1.2,2.8c-0.8,0.8-1.8,1.2-2.8,1.2
			s-2.1-0.4-2.8-1.2c-0.8-0.8-1.2-1.8-1.2-2.8s0.4-2.1,1.2-2.8C26.3,12,27.3,11.6,28.4,11.6z M7.6,14.8c-0.2,0-0.4,0.1-0.6,0.2
			c-0.2,0.2-0.2,0.4-0.2,0.6c0,0.2,0.1,0.4,0.2,0.6c0.2,0.1,0.4,0.2,0.6,0.2s0.4-0.1,0.6-0.2c0.2-0.2,0.2-0.4,0.2-0.6
			c0-0.2-0.1-0.4-0.2-0.6C8,14.9,7.8,14.8,7.6,14.8z M28.4,14.8c-0.2,0-0.4,0.1-0.6,0.2c-0.1,0.2-0.2,0.4-0.2,0.6
			c0,0.2,0.1,0.4,0.2,0.6c0.2,0.1,0.4,0.2,0.6,0.2s0.4-0.1,0.6-0.2c0.1-0.2,0.2-0.4,0.2-0.6c0-0.2-0.1-0.4-0.2-0.6
			C28.8,14.9,28.6,14.8,28.4,14.8z M18,2c1.7,0,3.3,0.7,4.5,1.9c1.2,1.2,1.9,2.8,1.9,4.5c0,1.7-0.7,3.3-1.9,4.5
			c-1.2,1.2-2.8,1.9-4.5,1.9s-3.3-0.7-4.5-1.9s-1.9-2.8-1.9-4.5c0-1.7,0.7-3.3,1.9-4.5C14.7,2.7,16.3,2,18,2z M18,5.2
			c-0.8,0-1.7,0.3-2.3,0.9c-0.6,0.6-0.9,1.4-0.9,2.3s0.3,1.7,0.9,2.3c0.6,0.6,1.4,0.9,2.3,0.9s1.7-0.3,2.3-0.9
			c0.6-0.6,0.9-1.4,0.9-2.3s-0.3-1.7-0.9-2.3C19.7,5.5,18.8,5.2,18,5.2z"/>
	</g>
</g>
<g>
	<g>
		<path class="st2" d="M8.7,24.7C7.5,26,7.6,28,8.9,29.1c1.8,1.7,4.9,0.2,4.9-2.2c0-1,0.5-1.9,1.1-2.6l9.5-9.6
			c0.5-0.5,1.1-0.7,1.8-0.7c3.6,0.3,4.4-4.4,3-5.6l-1.5,2.7c-1.6,0-2.1-1.3-2.1-1.3l1.2-2.4c-4.1,0.3-3.6,2.6-3.7,4.6
			c-0.1,0.4-0.3,0.8-0.6,1.1c-0.7,0.5-9.8,10.4-10.5,10.3C10.9,24,9.6,23.7,8.7,24.7z M10,26.1c1-1,2.5,0.5,1.5,1.6
			C10.6,28.6,9,27.1,10,26.1z"/>
		<polygon class="st3" points="12.7,24.4 13.3,25 23.7,14.4 23.2,13.8 		"/>
	</g>
	<g>
		<path class="st3" d="M8.6,7.9c-0.3,0-0.5,0.2-0.5,0.5l0,0c0,0.3,0.2,0.5,0.4,0.7L19,19.8l0.8-0.8L9.3,8.2C9.1,8,8.9,7.9,8.6,7.9z"
			/>
		<path class="st4" d="M20.7,18.9c0.1-0.1,0.3-0.3,0.1-0.5c0,0-0.7-0.7-0.7-0.7c-0.1-0.1-0.3-0.1-0.4,0L18,19.6
			c-0.1,0.1-0.1,0.3,0,0.4l0.7,0.7c0.2,0.2,0.4,0,0.5-0.1C19.3,22.4,27.2,32,29,29C32,27.2,22.5,19.1,20.7,18.9z"/>
		<path class="st5" d="M25.4,23.8c3.1,3.2,1.7,4.6-1.4,1.4C20.8,22.1,22.2,20.7,25.4,23.8z"/>
	</g>
</g>
</svg>
