<?xml version="1.0" encoding="utf-8"?>
<!-- Generator: Adobe Illustrator 25.0.0, SVG Export Plug-In . SVG Version: 6.00 Build 0)  -->
<svg version="1.1" id="Capa_1" xmlns="http://www.w3.org/2000/svg" xmlns:xlink="http://www.w3.org/1999/xlink" x="0px" y="0px"
	 viewBox="0 0 36 36" style="enable-background:new 0 0 36 36;" xml:space="preserve">
<style type="text/css">
	.st0{clip-path:url(#SVGID_2_);}
	.st1{fill:#FFFFFF;}
	.st2{fill:#4F4E54;}
	.st3{fill:#8F8F9B;}
	.st4{fill:#ADACB4;}
	.st5{fill:#B5B5BC;}
	.st6{fill:#D4D4D6;}
</style>
<g>
	<defs>
		<rect id="SVGID_1_" width="36" height="36"/>
	</defs>
	<clipPath id="SVGID_2_">
		<use xlink:href="#SVGID_1_"  style="overflow:visible;"/>
	</clipPath>
	<g class="st0">
		<path class="st1" d="M28.5,10.5H36v3h-7.5V10.5z M25.5,18H36v3H25.5V18z M30,25.5h6v3h-6V25.5z M3,33c0-3.2,1.3-6.2,3.5-8.5
			C8.8,22.3,11.8,21,15,21s6.2,1.3,8.5,3.5c2.3,2.3,3.5,5.3,3.5,8.5h-3c0-2.4-0.9-4.7-2.6-6.4c-1.7-1.7-4-2.6-6.4-2.6
			s-4.7,0.9-6.4,2.6C6.9,28.3,6,30.6,6,33H3z M15,19.5c-5,0-9-4-9-9s4-9,9-9s9,4,9,9S20,19.5,15,19.5z M15,16.5c3.3,0,6-2.7,6-6
			s-2.7-6-6-6s-6,2.7-6,6S11.7,16.5,15,16.5z"/>
	</g>
</g>
<g>
	<g>
		<polygon class="st2" points="20.1,30.8 18.6,32.1 9.9,18 11.4,16.7 		"/>
		<path class="st3" d="M19.7,29.2l-2.3,2c-0.2,0.2-0.4,0.1-0.6-0.1l-6.5-10.5c-0.1-0.2-0.1-0.5,0.1-0.7c0.1-0.1,2.5-2.3,2.6-2.1
			c0.1,0,0.3,0.1,0.3,0.2l6.5,10.5C20,28.7,19.9,29,19.7,29.2z"/>
		<path class="st3" d="M9.4,11.7l-3,2.6L3.2,9C2.4,7.6,3.8,6.8,4.6,6.1c0.5-0.4,1.2-0.3,1.6,0.3L9.4,11.7z"/>
		<path class="st2" d="M19.1,31.1c-1.9,1.7,0.2,5.1,2.2,3.5C23.2,32.8,21.1,29.4,19.1,31.1z M20.6,33.4c-0.7,0.6-1.4-0.6-0.8-1.2
			C20.5,31.6,21.2,32.8,20.6,33.4z"/>
		<path class="st4" d="M13.1,15.3l-4.8,4.2c-0.2,0.2-0.5,0.1-0.6-0.1L3,12c-0.1-0.2-0.1-0.6,0.1-0.7L8,7C8,6.9,8.2,6.9,8.3,6.9
			c0.1,0,0.2,0.1,0.3,0.2l4.6,7.4C13.3,14.8,13.3,15.1,13.1,15.3z"/>
		<polygon class="st5" points="9.2,18.7 8.5,19.3 3.4,11 4.1,10.4 		"/>
		<polygon class="st6" points="9.7,18.2 9,18.8 3.9,10.5 4.6,9.9 		"/>
		<g>
			<path class="st4" d="M9.4,22l6.4-1.2c0.5-0.1,0.8-0.6,0.7-1.2c-0.1-0.6-0.5-0.9-1-0.9L9.2,20C8.1,20.2,8.3,22.2,9.4,22z"/>
			<path class="st4" d="M17.2,21.5l-6.4,1.2c-0.5,0.1-0.8,0.6-0.7,1.2l0,0c0.1,0.6,0.5,0.9,1,0.9l6.4-1.2
				C18.6,23.3,18.3,21.3,17.2,21.5z"/>
			<path class="st4" d="M18.9,24.3l-6.4,1.2c-0.5,0.1-0.8,0.6-0.7,1.2l0,0c0.1,0.6,0.5,0.9,1,0.9l6.4-1.2c0.5-0.1,0.8-0.6,0.7-1.2
				l0,0C19.8,24.6,19.4,24.2,18.9,24.3z"/>
			<path class="st4" d="M20.6,27l-6.4,1.2c-1.1,0.2-0.9,2.2,0.3,2c0,0,6.4-1.2,6.4-1.2c0.5-0.1,0.8-0.6,0.7-1.2
				C21.5,27.3,21.1,26.9,20.6,27z"/>
		</g>
	</g>
	<g>
		<polygon class="st2" points="31.1,26.5 29.6,27.8 20.9,13.7 22.3,12.4 		"/>
		<path class="st3" d="M30.7,24.9l-2.3,2c-0.2,0.2-0.4,0.1-0.6-0.1l-6.5-10.5c-0.1-0.2-0.1-0.5,0.1-0.7c0.1-0.1,2.5-2.3,2.6-2.1
			c0.1,0,0.3,0.1,0.3,0.2l6.5,10.5C31,24.4,30.9,24.7,30.7,24.9z"/>
		<path class="st3" d="M20.4,7.4l-3,2.6l-3.3-5.3c-0.8-1.4,0.6-2.2,1.4-2.9c0.5-0.4,1.2-0.3,1.6,0.3L20.4,7.4z"/>
		<path class="st2" d="M30.1,26.8c-1.9,1.7,0.2,5.1,2.2,3.5C34.2,28.5,32,25.1,30.1,26.8z M31.6,29.1c-0.7,0.6-1.4-0.6-0.8-1.2
			C31.5,27.3,32.2,28.5,31.6,29.1z"/>
		<path class="st4" d="M24.2,10.2l-4.6-7.4c-0.1-0.2-0.4-0.3-0.6-0.1l-4.8,4.2c-0.2,0.2-0.2,0.5-0.1,0.7l4.6,7.4
			c0.1,0.2,0.4,0.3,0.6,0.1l4.8-4.2C24.3,10.8,24.3,10.5,24.2,10.2z"/>
		<polygon class="st5" points="20.2,14.4 19.5,15 14.4,6.7 15.1,6.1 		"/>
		<polygon class="st6" points="20.7,13.9 20,14.5 14.9,6.2 15.6,5.6 		"/>
		<g>
			<path class="st4" d="M20.4,17.7l6.4-1.2c0.5-0.1,0.8-0.6,0.7-1.2c-0.1-0.6-0.5-0.9-1-0.9l-6.4,1.2C19,15.9,19.3,17.9,20.4,17.7z"
				/>
			<path class="st4" d="M28.2,17.2l-6.4,1.2c-0.5,0.1-0.8,0.6-0.7,1.2l0,0c0.1,0.6,0.5,0.9,1,0.9l6.4-1.2C29.6,19,29.3,17,28.2,17.2
				z"/>
			<path class="st4" d="M29.9,20l-6.4,1.2c-0.5,0.1-0.8,0.6-0.7,1.2l0,0c0.1,0.6,0.5,0.9,1,0.9l6.4-1.2c0.5-0.1,0.8-0.6,0.7-1.2l0,0
				C30.8,20.3,30.4,19.9,29.9,20z"/>
			<path class="st4" d="M31.6,22.7l-6.4,1.2c-1.1,0.2-0.9,2.2,0.3,2c0,0,6.4-1.2,6.4-1.2c0.5-0.1,0.8-0.6,0.7-1.2
				C32.5,23,32.1,22.6,31.6,22.7z"/>
		</g>
	</g>
</g>
</svg>
