<?xml version="1.0" encoding="utf-8"?>
<!-- Generator: Adobe Illustrator 25.0.0, SVG Export Plug-In . SVG Version: 6.00 Build 0)  -->
<svg version="1.1" id="Capa_1" xmlns="http://www.w3.org/2000/svg" xmlns:xlink="http://www.w3.org/1999/xlink" x="0px" y="0px"
	 viewBox="0 0 50 50" style="enable-background:new 0 0 50 50;" xml:space="preserve">
<style type="text/css">
	.st0{fill:#E6E6E6;}
	.st1{fill:#C6C6C6;}
	.st2{fill:#FFB846;}
	.st3{fill:#F6E362;}
</style>
<g>
	<defs>
		<rect id="SVGID_1_" width="50" height="50"/>
	</defs>
	<clipPath id="SVGID_2_">
		<use xlink:href="#SVGID_1_"  style="overflow:visible;"/>
	</clipPath>
</g>
<g>
	<path class="st0" d="M38.7,10.9C31.3,2.4,18.4,1.5,10,9C-3.5,20.1,4.2,43.7,21.2,45C39.2,47.2,51,24.7,38.7,10.9z M24.2,8.6
		l-0.1,1.3c-1.4-0.1-2.7,0-4,0.3L19.9,9C21.3,8.7,22.8,8.5,24.2,8.6z M9.2,31.4c-0.6-1.3-1.1-2.8-1.3-4.2l1.3-0.2
		c0.2,1.3,0.6,2.7,1.2,3.9L9.2,31.4z M10.4,18.2l-1.2-0.6c0.6-1.3,1.5-2.6,2.4-3.7l1,0.9C11.7,15.8,11,17,10.4,18.2z M19.9,40
		c-1.4-0.3-2.8-0.9-4.1-1.6l0.6-1.2c1.2,0.7,2.5,1.2,3.8,1.5L19.9,40z M27.9,29.7c-6.9,5.8-15.6-4.2-9-10.4
		C25.8,13.5,34.5,23.5,27.9,29.7z M29.4,39.2L28.9,38c1.2-0.5,2.4-1.2,3.5-2.1l0.8,1.1C32,37.9,30.8,38.6,29.4,39.2z M35.1,16
		c-0.8-1.1-1.7-2.1-2.8-3l0.8-1.1c1.2,0.9,2.2,2,3,3.2L35.1,16z M38.5,28.9l-1.3-0.4c0.4-1.3,0.6-2.7,0.6-4.1h1.3
		C39.1,26,38.9,27.5,38.5,28.9z"/>
	<path class="st1" d="M23.4,14.6c-12.8,0.2-12.8,19.5,0,19.7C36.2,34.1,36.2,14.9,23.4,14.6z M27.9,29.7c-6.9,5.8-15.6-4.2-9-10.4
		C25.8,13.5,34.5,23.5,27.9,29.7z"/>
	<path class="st2" d="M45,25C45.7,12.2,33.3,0.9,21,2.7l0.3,16.6c4.7-2,9.4,3.4,6.8,7.9l16.3,2.5C44.8,28.2,45,26.6,45,25z"/>
	<path class="st3" d="M26.5,9c6.7,1.6,11.9,7.8,12.5,14.7l4,0.2c-0.1-9.2-7.3-17.6-16.3-19.1L26.5,9z"/>
	<path class="st3" d="M30.7,14.7c0,2.4-3.5,2.4-3.5,0C27.2,12.4,30.6,12.4,30.7,14.7z"/>
	<path class="st3" d="M34.7,21.2c0,2.4-3.5,2.4-3.5,0C31.2,18.9,34.7,18.9,34.7,21.2z"/>
</g>
</svg>
