<?xml version="1.0" encoding="utf-8"?>
<!-- Generator: Adobe Illustrator 25.0.0, SVG Export Plug-In . SVG Version: 6.00 Build 0)  -->
<svg version="1.1" id="Capa_1" xmlns="http://www.w3.org/2000/svg" xmlns:xlink="http://www.w3.org/1999/xlink" x="0px" y="0px"
	 viewBox="0 0 127 127" style="enable-background:new 0 0 127 127;" xml:space="preserve">
<style type="text/css">
	.st0{fill:#4F4E54;}
	.st1{fill:#8F8F9B;}
	.st2{fill:#ADACB4;}
	.st3{fill:#B5B5BC;}
	.st4{fill:#D4D4D6;}
</style>
<g>
	<g>
		<polygon class="st0" points="72,107 66.2,111.6 31.6,61.8 37.4,57.3 		"/>
		<path class="st1" d="M70.7,101.4l-9.2,7.1c-0.7,0.6-1.8,0.4-2.3-0.4L33.3,70.9c-0.5-0.8-0.4-1.9,0.4-2.4c0.4-0.2,9.9-8,10.2-7.5
			c0.5,0,1,0.2,1.4,0.7L71,98.9C71.6,99.7,71.4,100.8,70.7,101.4z"/>
		<path class="st1" d="M29.7,39.6l-11.9,9.2L4.9,30.3c-3.2-4.9,2.3-7.8,5.4-10.3c2-1.6,4.9-1.1,6.4,1L29.7,39.6z"/>
		<path class="st0" d="M68.1,107.9c-7.6,6.1,0.8,18.2,8.6,12.3C84.3,114.2,75.9,102.1,68.1,107.9z M74,116.3c-2.7,2.1-5.8-2.3-3-4.4
			C73.6,109.8,76.7,114.2,74,116.3z"/>
		<path class="st2" d="M44.2,52.3L25,67.2c-0.8,0.6-1.9,0.4-2.5-0.4L4.3,40.5c-0.6-0.8-0.4-2,0.4-2.6L23.9,23
			c0.4-0.3,0.8-0.4,1.3-0.3c0.5,0.1,0.9,0.3,1.2,0.8l18.3,26.2C45.2,50.5,45,51.7,44.2,52.3z"/>
		<polygon class="st3" points="28.8,64.2 26,66.4 5.6,37.1 8.5,34.9 		"/>
		<polygon class="st4" points="30.9,62.6 28.1,64.8 7.7,35.5 10.6,33.3 		"/>
		<g>
			<path class="st2" d="M29.8,76l25.3-4.2c1.9-0.3,3.2-2.2,2.9-4.1c-0.3-2-2.1-3.3-3.9-3l-25.3,4.2C24.3,69.6,25.3,76.7,29.8,76z"/>
			<path class="st2" d="M60.7,74.3l-25.3,4.2c-1.9,0.3-3.2,2.2-2.9,4.1l0,0c0.3,2,2,3.3,3.9,3l25.3-4.2
				C66.2,80.7,65.1,73.6,60.7,74.3z"/>
			<path class="st2" d="M67.4,83.9l-25.3,4.2c-1.9,0.3-3.2,2.2-2.9,4.1l0,0c0.3,2,2,3.3,3.9,3l25.3-4.2c1.9-0.3,3.2-2.2,2.9-4.1l0,0
				C71,85,69.3,83.6,67.4,83.9z"/>
			<path class="st2" d="M74.1,93.6l-25.3,4.2c-4.4,0.7-3.4,7.9,1.1,7.1c0,0,25.3-4.2,25.3-4.2c1.9-0.3,3.2-2.2,2.9-4.1
				C77.7,94.6,76,93.3,74.1,93.6z"/>
		</g>
	</g>
	<g>
		<polygon class="st0" points="115.7,91.9 109.9,96.4 75.2,46.6 81.1,42.1 		"/>
		<path class="st1" d="M114.3,86.2l-9.2,7.1c-0.7,0.6-1.8,0.4-2.3-0.4L76.9,55.8c-0.5-0.8-0.4-1.9,0.4-2.4c0.4-0.2,9.9-8,10.2-7.5
			c0.5,0,1,0.2,1.4,0.7l25.9,37.2C115.2,84.5,115.1,85.6,114.3,86.2z"/>
		<path class="st1" d="M73.4,24.4l-11.9,9.2L48.6,15.1c-3.2-4.9,2.3-7.8,5.4-10.3c2-1.6,4.9-1.1,6.4,1L73.4,24.4z"/>
		<path class="st0" d="M111.8,92.7c-7.6,6.1,0.8,18.2,8.6,12.3C128,99,119.6,86.9,111.8,92.7z M117.6,101.1c-2.7,2.1-5.8-2.3-3-4.4
			C117.3,94.6,120.3,99,117.6,101.1z"/>
		<path class="st2" d="M88.3,34.5L70,8.3c-0.6-0.8-1.7-1-2.5-0.4L48.3,22.7c-0.8,0.6-1,1.8-0.4,2.6l18.3,26.2c0.6,0.8,1.7,1,2.5,0.4
			l19.2-14.9C88.7,36.5,88.9,35.3,88.3,34.5z"/>
		<polygon class="st3" points="72.5,49 69.7,51.2 49.3,22 52.1,19.8 		"/>
		<polygon class="st4" points="74.6,47.4 71.7,49.6 51.4,20.4 54.2,18.2 		"/>
		<g>
			<path class="st2" d="M73.4,60.8l25.3-4.2c1.9-0.3,3.2-2.2,2.9-4.1c-0.3-2-2.1-3.3-3.9-3l-25.3,4.2C67.9,54.4,69,61.6,73.4,60.8z"
				/>
			<path class="st2" d="M104.4,59.1l-25.3,4.2c-1.9,0.3-3.2,2.2-2.9,4.1l0,0c0.3,2,2,3.3,3.9,3l25.3-4.2
				C109.9,65.5,108.8,58.4,104.4,59.1z"/>
			<path class="st2" d="M111.1,68.8l-25.3,4.2c-1.9,0.3-3.2,2.2-2.9,4.1l0,0c0.3,2,2,3.3,3.9,3l25.3-4.2c1.9-0.3,3.2-2.2,2.9-4.1
				l0,0C114.7,69.8,112.9,68.5,111.1,68.8z"/>
			<path class="st2" d="M117.8,78.4l-25.3,4.2c-4.4,0.7-3.4,7.9,1.1,7.1c0,0,25.3-4.2,25.3-4.2c1.9-0.3,3.2-2.2,2.9-4.1
				C121.4,79.4,119.6,78.1,117.8,78.4z"/>
		</g>
	</g>
</g>
</svg>
